<?xml version="1.0" encoding="UTF-8"?><svg id="b" xmlns="http://www.w3.org/2000/svg" width="874.601" height="191.842" viewBox="0 0 874.601 191.842"><g id="c"><g><g><path d="m159.564,23.73c-5.041-1.944-10.022-4.062-15.132-5.799-19.268-6.551-36.143-1.794-51.075,11.273-15.766,13.796-25.263,31.286-29.25,51.687-1.15,5.886-.798,12.068-1.104,18.116-.043.851.088,1.711.166,3.037-4.317-5.192-6.756-10.648-6.903-17.024-.293-12.771,3.854-24.342,9.816-35.357,6.129-11.324,14.327-20.965,24.723-28.575,8.429-6.17,17.758-10.474,28.194-12.079.208-.032.401-.158,1.234-.499-2.165-.527-3.763-.979-5.388-1.301-17.857-3.534-35.218-1.903-51.751,5.773-13.997,6.499-23.38,17.023-25.685,32.754-1.387,9.46.089,18.732,3.252,27.693,7.903,22.385,21.882,40.079,41.532,53.338.239.161.458.35.981.752-4.657.745-8.81.829-12.87-1.349-7.459-4.003-13.282-9.828-18.503-16.31-10.484-13.018-18.189-27.443-21.396-43.987-1.955-10.085-2.122-20.202.525-30.239.056-.212.007-.451.007-.678-.195-.131-.391-.263-.586-.394-3.459,4.834-7.252,9.467-10.309,14.543-6.38,10.596-10.47,21.976-10.963,34.544-.647,16.513,5.889,29.275,19.64,38.206,17.455,11.337,36.62,15.04,57.194,12.301,11.583-1.542,22.363-5.189,32.38-11.163.315-.188.654-.334,1.412-.717-2.548,6.127-6.363,10.483-11.823,13.422-11.434,6.156-23.848,8.079-36.577,7.877-16.854-.267-32.765-4.391-47.152-13.444-3.779-2.378-7.226-5.282-11.133-8.172,1.002,2.229,1.897,4.262,2.827,6.279,6.928,15.031,16.566,27.884,30.255,37.444,8.551,5.972,17.795,9.489,28.447,7.578,8.857-1.589,16.498-5.769,23.27-11.51,17.699-15.003,28.473-34.111,32.714-56.824.985-5.278.727-10.788,1.046-16.275,4.657,5.358,6.507,11.611,5.713,18.672-3.186,28.309-17.516,49.77-40.609,65.772-5.318,3.685-11.205,6.24-17.62,7.518.008.192.017.384.025.575,2.969.486,5.923,1.115,8.91,1.433,13.283,1.415,26.252.215,38.846-4.554,17.598-6.663,27.747-20.9,27.672-39.731-.066-16.755-5.3-32.078-13.992-46.242-6.36-10.364-13.908-19.726-24.369-26.323-2.18-1.375-4.505-2.519-6.763-3.771,3.736-1.856,11.259-2.311,15.859.887,8.835,6.142,15.858,13.944,21.682,22.85,10.777,16.48,17.029,34.466,16.584,54.326-.141,6.305-1.539,12.582-2.32,18.552.748-.759,1.95-1.905,3.069-3.127,12.726-13.895,20.102-30.092,20.383-49.08.305-20.618-9.489-35.488-27.502-44.706-17.445-8.928-35.933-9.875-54.809-5.082-10.101,2.565-19.341,7.129-28.383,12.16-.323.18-.638.375-1.496.88,2.524-5.072,5.381-9.068,9.663-11.971,7.931-5.376,16.838-8.243,26.151-9.772,16.371-2.687,32.448-1.452,47.77,5.235,12.197,5.323,22.362,13.204,28.902,25.141.138.251.341.467.974.555-1.009-8.317-2.018-16.634-3.027-24.951.108-.045.216-.089.324-.134.318.485.696.94.944,1.458,14.835,30.952,14.459,61.678-3.479,91.023-14.789,24.194-36.972,39.033-65.028,43.908-33.382,5.801-62.746-3.385-86.7-27.174C-10.137,124.157-8.411,66.104,26.692,29.988,49.489,6.532,77.688-3.145,110.348.89c14.593,1.803,27.886,7.099,40.067,15.209,3.299,2.196,6.279,4.871,9.405,7.326-.085.101-.171.203-.256.304Z" fill="#fcca41"/><path d="m192.417,50.084c-2.102-5.819-3.895-11.109-5.975-16.283-.462-1.149-1.785-2.335-2.974-2.743-5.115-1.754-10.328-3.225-15.534-5.346,5.072-1.586,10.114-3.276,15.228-4.709,2.216-.621,3.416-1.722,4.06-3.964,1.418-4.933,3.11-9.786,4.904-15.333.635,1.787,1.081,3.039,1.525,4.291,1.216,3.435,2.668,6.81,3.574,10.325.769,2.984,2.359,4.469,5.304,5.223,4.75,1.216,9.402,2.816,14.75,4.455-5.686,1.674-10.752,3.268-15.881,4.626-2.022.536-3.072,1.43-3.686,3.535-1.513,5.19-3.39,10.274-5.296,15.922Z" fill="#fcca41"/><path d="m166.695,55.452c-.917-2.537-1.698-4.843-2.605-7.099-.201-.501-.778-1.018-1.296-1.196-2.23-.765-4.503-1.406-6.772-2.331,2.211-.691,4.409-1.428,6.639-2.053.966-.271,1.489-.751,1.77-1.728.618-2.15,1.356-4.267,2.138-6.685.277.779.471,1.325.665,1.871.53,1.498,1.163,2.969,1.558,4.501.335,1.301,1.028,1.948,2.312,2.277,2.071.53,4.099,1.228,6.431,1.942-2.479.73-4.688,1.425-6.924,2.017-.882.234-1.339.624-1.607,1.541-.66,2.263-1.478,4.479-2.309,6.942Z" fill="#fcca41"/></g><g><path d="m755.9,103.27c13.166,15.04,21.836,33.21,40.062,42.088-4.619,3.154-18.897,2.212-24.946-2.302-3.166-2.363-6.071-5.229-8.581-8.288-5.913-7.207-11.412-14.754-17.291-21.991-3.333-4.102-7.085-7.863-11.32-12.515,3.169,0,5.688-.019,8.207.003,17.147.148,24.401-7.11,24.284-24.31-.113-16.719-9.917-26.351-26.209-25.751-7.808.288-9.601,2.04-9.616,9.806-.042,21.83-.018,43.66-.021,65.49q-.002,13.568,11.395,20.533h-36.659c.136-.757.116-1.298.259-1.345,7.715-2.544,9.404-4.028,9.512-12.292.321-24.491.283-48.989.196-73.483-.024-6.675-3.478-10.908-12.295-10.953,2.206-1.447,2.688-2.04,3.16-2.032,15.984.261,31.984.243,47.939,1.087,4.96.263,10.141,2.222,14.62,4.557,10.943,5.704,14.906,15.813,12.573,29.84-1.86,11.188-10.178,19.021-22.769,21.437-.607.116-1.219.206-2.5.42Z" fill="#fcca41"/><path d="m609.636,46.017c3.417,0,6.836-.062,10.252.011,13.805.295,27.675-.101,41.396,1.144,16.092,1.46,25.512,14.926,22.003,29.38-1.794,7.39-6.961,11.448-13.393,14.409-1.459.672-2.981,1.205-4.993,2.009,4.208,1.443,7.989,2.372,11.443,3.998,8.68,4.085,13.629,10.925,14.071,20.695.445,9.85-3.299,18.088-11.993,22.437-6.514,3.259-14.066,5.56-21.301,6.024-14.76.948-29.619.384-44.436.389-1.053,0-2.107-.433-3.216-.677.242-.694.332-1.255.454-1.262,7.543-.439,9.603-5.528,9.828-11.877.289-8.149.385-16.307.417-24.461.056-14.319.011-28.639-.015-42.958-.015-8.127.412-16.539-11.431-17.792.305-.489.609-.979.914-1.468Zm25.396,49.697c0,9.598.313,18.264-.064,26.901-.843,19.307,3.802,20.402,22.077,18.992,8.73-.673,14.98-5.213,16.802-13.867,2.001-9.501,2.07-19.101-6.256-26.246-9.523-8.172-21.008-5.253-32.559-5.78Zm.074-3.838c6.046,0,11.389.419,16.637-.105,6.657-.665,12.621-3.044,15.671-9.804,3.466-7.683,1.902-19.976-3.274-25.429-5.38-5.666-18.592-8.556-26.083-5.462-1.232.509-2.804,2.18-2.823,3.337-.205,12.265-.127,24.535-.127,37.464Z" fill="#fcca41"/><path d="m578.469,107.165c-.602-1.661-.749-3.819-1.903-4.88-2.312-2.126-5.031-4.846-7.84-5.185-6.357-.769-12.871-.242-20.032-.242,0,4.361-.033,8.136.007,11.911.092,8.822.122,17.646.371,26.464.129,4.558,2.521,6.962,7.342,6.822,5.826-.169,11.676.178,17.483-.2,7.311-.476,13.523-3.255,17.26-10.084,1.069-1.953,2.256-3.841,4.549-5.416-.923,5.964-1.748,11.946-2.876,17.871-.163.858-1.774,2.055-2.719,2.058-21.814.068-43.629-.004-65.444-.084-.419-.002-.836-.406-1.247-.619.116-.396.128-.907.303-.97,8.574-3.095,9.859-4.718,10.09-15.236.249-11.321.102-22.651.097-33.977-.004-10.827.134-21.658-.138-32.478-.182-7.257-1.482-14.159-10.443-16.382h65.437v16.925c-.25.067-.501.135-.751.202-.316-.623-.768-1.213-.926-1.874-1.768-7.378-6.949-10.905-14.002-11.436-6.957-.524-13.977-.318-20.965-.173-1.057.022-2.981,1.439-2.992,2.232-.186,13.451-.133,26.905-.133,40.79,7.328,0,14.337.515,21.196-.273,2.472-.284,4.766-3.533,6.78-5.756.963-1.063,1.083-2.89,2.577-4.241v24.054c-.36.058-.721.116-1.081.175Z" fill="#fcca41"/><path d="m374.34,49.989v42.954c7.153,0,14.107.325,21.014-.103,5.522-.342,7.529-4.81,9.517-9.49v23.341l-.954.227c-.397-1.086-.763-2.185-1.197-3.256-1.798-4.433-4.895-7.005-9.88-6.972-5.992.04-11.983.009-18.718.009,0,2.974-.014,5.733.003,8.492.057,9.658-.105,19.324.269,28.969.249,6.416,2.065,7.787,8.343,7.824,4.496.026,8.998-.136,13.489.02,11.164.388,18.738-4.568,22.487-15.428.509.22,1.018.44,1.526.661-.878,5.964-1.678,11.943-2.752,17.871-.108.597-1.869,1.271-2.865,1.275-21.482.088-42.964.09-64.446.074-.591,0-1.182-.392-1.953-.666.335-.63.462-1.279.764-1.376,7.81-2.492,9.866-4.456,9.95-12.624.245-23.813.228-47.631-.027-71.444-.072-6.72-3.001-12.111-10.492-13.971h65.401v16.877c-3.495-12.411-13.062-13.652-23.635-13.297-5.13.172-10.27.03-15.843.03Z" fill="#fcca41"/><path d="m828.702,49.989v42.954c7.153,0,14.107.325,21.014-.103,5.522-.342,7.529-4.81,9.517-9.49v23.341l-.954.227c-.397-1.086-.763-2.185-1.197-3.256-1.798-4.433-4.895-7.005-9.88-6.972-5.992.04-11.983.009-18.718.009,0,2.974-.014,5.733.003,8.492.057,9.658-.105,19.324.269,28.969.249,6.416,2.065,7.787,8.343,7.824,4.496.026,8.998-.136,13.489.02,11.164.388,18.738-4.568,22.487-15.428.509.22,1.018.44,1.526.661-.878,5.964-1.678,11.943-2.752,17.871-.108.597-1.869,1.271-2.865,1.275-21.482.088-42.964.09-64.446.074-.591,0-1.182-.392-1.953-.666.335-.63.462-1.279.764-1.376,7.81-2.492,9.866-4.456,9.95-12.624.245-23.813.228-47.631-.027-71.444-.072-6.72-3.001-12.111-10.492-13.971h65.401v16.877c-3.495-12.411-13.062-13.652-23.635-13.297-5.13.172-10.27.03-15.843.03Z" fill="#fcca41"/><path d="m330.209,121.665c0,3.816.247,7.656-.119,11.437-.151,1.559-1.276,3.441-2.544,4.413-17.6,13.485-45.639,15.46-67.088,1.594-18.483-11.948-27.654-34.897-22.408-57.128,4.498-19.057,23.675-35.437,44.349-38.136,14.803-1.932,28.802.803,42.42,6.482,2.809,1.171,4.03,2.696,3.807,5.944-.354,5.162-.095,10.365-1.294,15.669-.303-.511-.808-.995-.878-1.536-2.418-18.668-32.421-28.681-50.492-19.767-18.57,9.16-23.407,25.079-22.954,43.456.476,19.33,8.448,35.038,25.963,44.885,15.556,8.746,40.57,7.093,49.175-15.681.265-.702.769-1.315,1.161-1.969.301.112.602.224.902.336Z" fill="#fcca41"/><path d="m438.34,46.345h35.38c.06.267.12.533.181.8-.765.3-1.509.68-2.298.887-4.719,1.235-7.606,4.1-7.725,9.114-.288,12.136-.617,24.276-.625,36.414-.009,13.308.012,26.631.636,39.919.325,6.92,2.739,8.47,9.628,8.474,3.83.002,7.668-.169,11.49.012,10.121.481,17.264-3.814,21.548-12.973.446-.953,1.131-1.794,2.461-2.41-.79,5.87-1.483,11.757-2.475,17.593-.148.873-1.698,2.158-2.601,2.159-21.81.027-43.619-.093-65.429-.221-.184-.001-.365-.475-.838-1.13,11.049-2.028,10.592-10.476,10.583-18.696-.024-21.317-.02-42.635-.063-63.952-.02-9.901-1.434-11.991-9.854-15.99Z" fill="#fcca41"/></g></g></g></svg>