<?xml version="1.0" encoding="UTF-8"?><svg id="b" xmlns="http://www.w3.org/2000/svg" width="638.015" height="470.795" viewBox="0 0 638.015 470.795"><g id="c"><g><g><path d="m519.314,364.582c13.166,15.04,21.836,33.21,40.062,42.088-4.619,3.154-18.897,2.212-24.946-2.302-3.166-2.363-6.071-5.229-8.581-8.288-5.913-7.207-11.412-14.754-17.291-21.991-3.333-4.102-7.085-7.863-11.32-12.515,3.169,0,5.688-.019,8.207.003,17.147.148,24.401-7.11,24.284-24.31-.113-16.719-9.917-26.351-26.209-25.751-7.808.288-9.601,2.04-9.616,9.806-.042,21.83-.018,43.66-.021,65.49q-.002,13.568,11.395,20.533h-36.659c.136-.757.116-1.298.259-1.345,7.715-2.544,9.404-4.028,9.512-12.292.321-24.491.283-48.989.196-73.483-.024-6.675-3.478-10.908-12.295-10.953,2.206-1.447,2.688-2.04,3.16-2.032,15.984.261,31.984.243,47.939,1.087,4.96.263,10.141,2.222,14.62,4.557,10.943,5.704,14.906,15.813,12.573,29.84-1.86,11.188-10.178,19.021-22.769,21.437-.607.116-1.219.206-2.5.42Z"/><path d="m373.051,307.329c3.417,0,6.836-.062,10.252.011,13.805.295,27.675-.101,41.396,1.144,16.092,1.46,25.512,14.926,22.003,29.38-1.794,7.39-6.961,11.448-13.393,14.409-1.459.672-2.981,1.205-4.993,2.009,4.208,1.443,7.989,2.372,11.443,3.998,8.68,4.085,13.629,10.925,14.071,20.695.445,9.85-3.299,18.088-11.993,22.437-6.514,3.259-14.066,5.56-21.301,6.024-14.76.948-29.619.384-44.436.389-1.053,0-2.107-.433-3.216-.677.242-.694.332-1.255.454-1.262,7.543-.439,9.603-5.528,9.828-11.877.289-8.149.385-16.307.417-24.461.056-14.319.011-28.639-.015-42.958-.015-8.127.412-16.539-11.431-17.792.305-.489.609-.979.914-1.468Zm25.396,49.697c0,9.598.313,18.264-.064,26.901-.843,19.307,3.802,20.402,22.077,18.992,8.73-.673,14.98-5.213,16.802-13.867,2.001-9.501,2.07-19.101-6.256-26.246-9.523-8.172-21.008-5.253-32.559-5.78Zm.074-3.838c6.046,0,11.389.419,16.637-.105,6.657-.665,12.621-3.044,15.671-9.804,3.466-7.683,1.902-19.976-3.274-25.429-5.38-5.666-18.592-8.556-26.083-5.462-1.232.509-2.804,2.18-2.823,3.337-.205,12.265-.127,24.535-.127,37.464Z"/><path d="m341.883,368.477c-.602-1.661-.749-3.819-1.903-4.88-2.312-2.126-5.031-4.846-7.84-5.185-6.357-.769-12.871-.242-20.032-.242,0,4.361-.033,8.136.007,11.911.092,8.822.122,17.646.371,26.464.129,4.558,2.521,6.962,7.342,6.822,5.826-.169,11.676.178,17.483-.2,7.311-.476,13.523-3.255,17.26-10.084,1.069-1.953,2.256-3.841,4.549-5.416-.923,5.964-1.748,11.946-2.876,17.871-.163.858-1.774,2.055-2.719,2.058-21.814.068-43.629-.004-65.444-.084-.419-.002-.836-.406-1.247-.619.116-.396.128-.907.303-.97,8.574-3.095,9.859-4.718,10.09-15.236.249-11.321.102-22.651.097-33.977-.004-10.827.134-21.658-.138-32.478-.182-7.257-1.482-14.159-10.443-16.382h65.437v16.925c-.25.067-.501.135-.751.202-.316-.623-.768-1.213-.926-1.874-1.768-7.378-6.949-10.905-14.002-11.436-6.957-.524-13.977-.318-20.965-.173-1.057.022-2.981,1.439-2.992,2.232-.186,13.451-.133,26.905-.133,40.79,7.328,0,14.337.515,21.196-.273,2.472-.284,4.766-3.533,6.78-5.756.963-1.063,1.083-2.89,2.577-4.241v24.054c-.36.058-.721.116-1.081.175Z"/><path d="m137.754,311.301v42.954c7.153,0,14.107.325,21.014-.103,5.522-.342,7.529-4.81,9.517-9.49v23.341l-.954.227c-.397-1.086-.763-2.185-1.197-3.256-1.798-4.433-4.895-7.005-9.88-6.972-5.992.04-11.983.009-18.718.009,0,2.974-.014,5.733.003,8.492.057,9.658-.105,19.324.269,28.969.249,6.416,2.065,7.787,8.343,7.824,4.496.026,8.998-.136,13.489.02,11.164.388,18.738-4.568,22.487-15.428.509.22,1.018.44,1.526.661-.878,5.964-1.678,11.943-2.752,17.871-.108.597-1.869,1.271-2.865,1.275-21.482.088-42.964.09-64.446.074-.591,0-1.182-.392-1.953-.666.335-.63.462-1.279.764-1.376,7.81-2.492,9.866-4.456,9.95-12.624.245-23.813.228-47.631-.027-71.444-.072-6.72-3.001-12.111-10.492-13.971h65.401v16.877c-3.495-12.411-13.062-13.652-23.635-13.297-5.13.172-10.27.03-15.843.03Z"/><path d="m592.116,311.301v42.954c7.153,0,14.107.325,21.014-.103,5.522-.342,7.529-4.81,9.517-9.49v23.341l-.954.227c-.397-1.086-.763-2.185-1.197-3.256-1.798-4.433-4.895-7.005-9.88-6.972-5.992.04-11.983.009-18.718.009,0,2.974-.014,5.733.003,8.492.057,9.658-.105,19.324.269,28.969.249,6.416,2.065,7.787,8.343,7.824,4.496.026,8.998-.136,13.489.02,11.164.388,18.738-4.568,22.487-15.428.509.22,1.018.44,1.526.661-.878,5.964-1.678,11.943-2.752,17.871-.108.597-1.869,1.271-2.865,1.275-21.482.088-42.964.09-64.446.074-.591,0-1.182-.392-1.953-.666.335-.63.462-1.279.764-1.376,7.81-2.492,9.866-4.456,9.95-12.624.245-23.813.228-47.631-.027-71.444-.072-6.72-3.001-12.111-10.492-13.971h65.401v16.877c-3.495-12.411-13.062-13.652-23.635-13.297-5.13.172-10.27.03-15.843.03Z"/><path d="m93.623,382.977c0,3.816.247,7.656-.119,11.437-.151,1.559-1.276,3.441-2.544,4.413-17.6,13.485-45.639,15.46-67.088,1.594-18.483-11.948-27.654-34.897-22.408-57.128,4.498-19.057,23.675-35.437,44.349-38.136,14.803-1.932,28.802.803,42.42,6.482,2.809,1.171,4.03,2.696,3.807,5.944-.354,5.162-.095,10.365-1.294,15.669-.303-.511-.808-.995-.878-1.536-2.418-18.668-32.421-28.681-50.492-19.767-18.57,9.16-23.407,25.079-22.954,43.456.476,19.33,8.448,35.038,25.963,44.885,15.556,8.746,40.57,7.093,49.175-15.681.265-.702.769-1.315,1.161-1.969.301.112.602.224.902.336Z"/><path d="m201.755,307.657h35.38c.06.267.12.533.181.8-.765.3-1.509.68-2.298.887-4.719,1.235-7.606,4.1-7.725,9.114-.288,12.136-.617,24.276-.625,36.414-.009,13.308.012,26.631.636,39.919.325,6.92,2.739,8.47,9.628,8.474,3.83.002,7.668-.169,11.49.012,10.121.481,17.264-3.814,21.548-12.973.446-.953,1.131-1.794,2.461-2.41-.79,5.87-1.483,11.757-2.475,17.593-.148.873-1.698,2.158-2.601,2.159-21.81.027-43.619-.093-65.429-.221-.184-.001-.365-.475-.838-1.13,11.049-2.028,10.592-10.476,10.583-18.696-.024-21.317-.02-42.635-.063-63.952-.02-9.901-1.434-11.991-9.854-15.99Z"/></g><g><path d="m420.709,33.024c-7.015-2.705-13.947-5.653-21.059-8.071-26.814-9.116-50.298-2.497-71.079,15.687-21.94,19.199-35.158,43.54-40.705,71.93-1.601,8.192-1.11,16.795-1.537,25.211-.06,1.184.122,2.381.231,4.227-6.008-7.226-9.403-14.818-9.606-23.692-.408-17.773,5.363-33.876,13.66-49.204,8.53-15.758,19.938-29.175,34.406-39.766,11.731-8.587,24.713-14.576,39.236-16.81.289-.044.559-.22,1.718-.694-3.013-.733-5.237-1.362-7.498-1.81-24.851-4.919-49.011-2.649-72.019,8.034-19.479,9.044-32.537,23.69-35.745,45.582-1.93,13.165.123,26.068,4.526,38.538,10.998,31.152,30.452,55.777,57.799,74.228.332.224.638.487,1.366,1.046-6.48,1.036-12.261,1.154-17.91-1.878-10.381-5.571-18.484-13.677-25.749-22.698-14.591-18.116-25.313-38.191-29.776-61.214-2.721-14.035-2.953-28.114.731-42.082.078-.295.01-.628.01-.944-.272-.183-.544-.366-.816-.548-4.814,6.727-10.093,13.174-14.346,20.239-8.879,14.746-14.571,30.582-15.256,48.073-.9,22.981,8.196,40.741,27.332,53.17,24.291,15.777,50.963,20.931,79.593,17.118,16.119-2.146,31.122-7.221,45.062-15.534.438-.261.911-.465,1.965-.997-3.546,8.527-8.855,14.588-16.453,18.679-15.912,8.567-33.188,11.242-50.902,10.962-23.456-.372-45.598-6.11-65.619-18.709-5.259-3.309-10.056-7.351-15.494-11.373,1.395,3.102,2.641,5.931,3.934,8.739,9.641,20.918,23.054,38.805,42.105,52.109,11.9,8.31,24.765,13.206,39.588,10.546,12.326-2.212,22.96-8.029,32.384-16.017,24.631-20.879,39.624-47.471,45.526-79.079,1.371-7.345,1.012-15.013,1.456-22.649,6.48,7.456,9.056,16.159,7.95,25.984-4.433,39.396-24.376,69.263-56.514,91.531-7.401,5.128-15.594,8.684-24.521,10.462.012.267.023.534.035.801,4.132.676,8.243,1.552,12.4,1.995,18.486,1.97,36.534.299,54.06-6.337,24.49-9.272,38.614-29.086,38.51-55.292-.092-23.317-7.376-44.642-19.472-64.353-8.851-14.423-19.355-27.452-33.914-36.632-3.034-1.913-6.27-3.506-9.412-5.247,5.199-2.583,15.669-3.216,22.07,1.234,12.295,8.548,22.068,19.406,30.173,31.799,14.998,22.934,23.699,47.965,23.08,75.602-.197,8.774-2.142,17.509-3.229,25.818,1.04-1.056,2.713-2.651,4.27-4.351,17.71-19.336,27.975-41.877,28.366-68.303.425-28.692-13.206-49.386-38.273-62.215-24.278-12.424-50.007-13.743-76.275-7.073-14.057,3.569-26.916,9.922-39.5,16.922-.45.25-.888.522-2.082,1.225,3.512-7.058,7.488-12.62,13.448-16.659,11.038-7.481,23.432-11.471,36.393-13.599,22.783-3.74,45.156-2.02,66.479,7.285,16.974,7.407,31.119,18.376,40.222,34.987.192.35.474.649,1.355.773-1.404-11.574-2.809-23.149-4.213-34.723.15-.062.301-.124.451-.186.442.675.969,1.309,1.314,2.03,20.645,43.075,20.122,85.835-4.842,126.672-20.581,33.669-51.452,54.32-90.496,61.105-46.457,8.073-87.321-4.71-120.656-37.817-54.401-54.029-52-134.818-3.149-185.079C267.522,9.091,306.765-4.376,352.217,1.239c20.308,2.509,38.808,9.879,55.759,21.166,4.591,3.057,8.738,6.779,13.089,10.196-.119.141-.238.282-.357.423Z"/><path d="m472.687,71.537c-2.926-8.098-5.42-15.46-8.315-22.661-.643-1.599-2.485-3.25-4.138-3.817-7.119-2.441-14.373-4.488-21.618-7.44,7.058-2.207,14.075-4.559,21.193-6.553,3.084-.864,4.754-2.397,5.65-5.517,1.973-6.864,4.328-13.619,6.824-21.338.884,2.487,1.505,4.229,2.122,5.972,1.692,4.781,3.713,9.477,4.974,14.369,1.071,4.152,3.282,6.22,7.381,7.269,6.611,1.693,13.085,3.919,20.527,6.199-7.912,2.33-14.963,4.547-22.101,6.438-2.814.746-4.275,1.991-5.129,4.92-2.106,7.223-4.717,14.298-7.37,22.158Z"/><path d="m430.632,77.17c-1.276-3.531-2.363-6.74-3.625-9.879-.28-.697-1.083-1.417-1.804-1.664-3.104-1.064-6.266-1.957-9.425-3.244,3.077-.962,6.136-1.987,9.239-2.857,1.344-.377,2.072-1.045,2.463-2.405.86-2.993,1.887-5.938,2.975-9.303.385,1.084.656,1.844.925,2.604.738,2.084,1.619,4.132,2.169,6.264.467,1.81,1.431,2.712,3.218,3.169,2.882.738,5.705,1.709,8.949,2.703-3.45,1.016-6.524,1.983-9.635,2.807-1.227.325-1.864.868-2.236,2.145-.918,3.149-2.057,6.234-3.213,9.66Z"/></g><g><polygon points="110.028 462.817 47.455 459.694 110.028 456.571 110.028 462.817"/><polygon points="542.676 456.571 605.249 459.694 542.676 462.817 542.676 456.571"/></g><g><path d="m130.764,470.795c-1.653,0-3.176-.274-4.571-.821-1.395-.548-2.604-1.322-3.626-2.324s-1.824-2.175-2.402-3.518c-.579-1.343-.868-2.82-.868-4.432s.289-3.088.868-4.432c.578-1.343,1.384-2.515,2.417-3.517,1.033-1.002,2.247-1.777,3.641-2.324,1.395-.548,2.918-.821,4.571-.821,1.674,0,3.218.284,4.633.852,1.415.568,2.619,1.41,3.61,2.526l-2.014,1.952c-.827-.868-1.756-1.514-2.789-1.938-1.033-.423-2.138-.635-3.316-.635-1.219,0-2.35.207-3.393.62-1.043.413-1.948.991-2.712,1.735-.764.743-1.358,1.627-1.782,2.649-.424,1.022-.635,2.133-.635,3.331s.211,2.309.635,3.331c.423,1.023,1.018,1.906,1.782,2.65.764.743,1.668,1.322,2.712,1.735,1.043.413,2.174.619,3.393.619,1.178,0,2.283-.211,3.316-.635,1.033-.424,1.962-1.079,2.789-1.968l2.014,1.952c-.991,1.115-2.195,1.963-3.61,2.541-1.416.579-2.97.868-4.664.868Z"/><path d="m144.307,470.547l9.823-21.692h3.068l9.854,21.692h-3.254l-8.77-19.957h1.24l-8.77,19.957h-3.192Zm4.183-5.424l.837-2.479h12.21l.898,2.479h-13.945Z"/><path d="m174.924,470.547v-21.692h8.46c1.901,0,3.522.299,4.866.898,1.342.6,2.375,1.467,3.099,2.603.723,1.137,1.084,2.49,1.084,4.06s-.361,2.919-1.084,4.045-1.756,1.993-3.099,2.603c-1.343.609-2.965.914-4.866.914h-6.755l1.395-1.456v8.026h-3.099Zm3.099-7.717l-1.395-1.549h6.663c1.983,0,3.486-.424,4.509-1.271,1.023-.847,1.534-2.045,1.534-3.595s-.511-2.747-1.534-3.595c-1.022-.847-2.525-1.271-4.509-1.271h-6.663l1.395-1.549v12.829Z"/><path d="m205.262,470.547v-18.997h-7.438v-2.695h17.943v2.695h-7.438v18.997h-3.068Z"/><path d="m232.378,470.795c-2.851,0-5.093-.816-6.725-2.448-1.632-1.632-2.448-4.019-2.448-7.159v-12.333h3.099v12.209c0,2.418.532,4.184,1.596,5.3,1.064,1.115,2.567,1.673,4.509,1.673,1.962,0,3.476-.558,4.54-1.673,1.063-1.116,1.596-2.882,1.596-5.3v-12.209h3.006v12.333c0,3.141-.811,5.527-2.433,7.159-1.622,1.632-3.869,2.448-6.74,2.448Z"/><path d="m252.552,470.547v-21.692h8.46c1.901,0,3.522.299,4.866.898,1.342.6,2.375,1.467,3.099,2.603.723,1.137,1.084,2.49,1.084,4.06s-.361,2.919-1.084,4.045-1.756,1.988-3.099,2.587c-1.343.6-2.965.899-4.866.899h-6.755l1.395-1.426v8.026h-3.099Zm3.099-7.717l-1.395-1.519h6.663c1.983,0,3.486-.429,4.509-1.286,1.023-.856,1.534-2.061,1.534-3.61s-.511-2.747-1.534-3.595c-1.022-.847-2.525-1.271-4.509-1.271h-6.663l1.395-1.549v12.829Zm11.404,7.717l-5.516-7.871h3.316l5.578,7.871h-3.378Z"/><path d="m276.444,470.547l9.823-21.692h3.068l9.854,21.692h-3.254l-8.77-19.957h1.24l-8.77,19.957h-3.192Zm4.183-5.424l.837-2.479h12.21l.898,2.479h-13.945Z"/><path d="m325.283,470.547v-8.306l.713,1.922-9.328-15.309h3.316l7.84,12.922h-1.797l7.871-12.922h3.068l-9.297,15.309.682-1.922v8.306h-3.068Z"/><path d="m367.429,470.795c-1.652,0-3.176-.274-4.57-.821-1.395-.548-2.604-1.322-3.626-2.324s-1.823-2.175-2.401-3.518c-.579-1.343-.868-2.82-.868-4.432s.289-3.088.868-4.432c.578-1.343,1.384-2.515,2.417-3.517s2.247-1.777,3.642-2.324c1.395-.548,2.917-.821,4.57-.821,1.674,0,3.218.284,4.633.852,1.415.568,2.619,1.41,3.61,2.526l-2.014,1.952c-.827-.868-1.757-1.514-2.789-1.938-1.034-.423-2.139-.635-3.316-.635-1.219,0-2.351.207-3.394.62s-1.947.991-2.711,1.735c-.765.743-1.359,1.627-1.782,2.649-.424,1.022-.635,2.133-.635,3.331s.211,2.309.635,3.331c.423,1.023,1.018,1.906,1.782,2.65.764.743,1.668,1.322,2.711,1.735s2.175.619,3.394.619c1.178,0,2.282-.211,3.316-.635,1.032-.424,1.962-1.079,2.789-1.968l2.014,1.952c-.991,1.115-2.195,1.963-3.61,2.541-1.415.579-2.97.868-4.664.868Z"/><path d="m387.881,467.85h12.644v2.696h-15.742v-21.692h15.309v2.695h-12.21v16.301Zm-.278-9.638h11.156v2.634h-11.156v-2.634Z"/><path d="m410.194,470.547v-21.692h3.099v18.996h11.745v2.696h-14.844Z"/><path d="m436.349,467.85h12.644v2.696h-15.742v-21.692h15.309v2.695h-12.21v16.301Zm-.278-9.638h11.156v2.634h-11.156v-2.634Z"/><path d="m458.661,470.547v-21.692h9.73c2.5,0,4.421.501,5.765,1.503,1.343,1.002,2.014,2.37,2.014,4.105,0,1.178-.263,2.17-.79,2.976-.526.806-1.234,1.425-2.123,1.859-.889.434-1.849.65-2.882.65l.558-.93c1.24,0,2.335.217,3.285.65.95.435,1.704,1.069,2.263,1.906.558.837.836,1.875.836,3.114,0,1.859-.697,3.301-2.092,4.323s-3.466,1.534-6.213,1.534h-10.351Zm3.099-2.511h7.128c1.715,0,3.026-.289,3.936-.867s1.363-1.487,1.363-2.728c0-1.26-.454-2.179-1.363-2.758-.909-.578-2.221-.867-3.936-.867h-7.406v-2.511h6.632c1.569,0,2.789-.289,3.656-.867.868-.578,1.302-1.446,1.302-2.604s-.434-2.024-1.302-2.604c-.867-.578-2.087-.867-3.656-.867h-6.354v16.672Z"/><path d="m486.769,470.547v-21.692h8.46c1.9,0,3.522.299,4.865.898s2.376,1.467,3.1,2.603c.723,1.137,1.084,2.49,1.084,4.06s-.361,2.919-1.084,4.045c-.724,1.126-1.757,1.988-3.1,2.587-1.343.6-2.965.899-4.865.899h-6.756l1.395-1.426v8.026h-3.099Zm3.099-7.717l-1.395-1.519h6.663c1.983,0,3.486-.429,4.509-1.286,1.022-.856,1.534-2.061,1.534-3.61s-.512-2.747-1.534-3.595c-1.022-.847-2.525-1.271-4.509-1.271h-6.663l1.395-1.549v12.829Zm11.404,7.717l-5.516-7.871h3.315l5.578,7.871h-3.378Z"/><path d="m510.66,470.547l9.824-21.692h3.067l9.854,21.692h-3.254l-8.77-19.957h1.239l-8.77,19.957h-3.192Zm4.184-5.424l.837-2.479h12.21l.898,2.479h-13.945Z"/></g></g></g></svg>