<?xml version="1.0" encoding="UTF-8"?><svg id="b" xmlns="http://www.w3.org/2000/svg" width="622.474" height="542.596" viewBox="0 0 622.474 542.596"><g id="c"><g><path d="m451.304,67.116c-14.257-5.497-28.345-11.489-42.8-16.403-54.497-18.528-102.225-5.075-144.459,31.883-44.591,39.019-71.454,88.489-82.728,146.188-3.253,16.649-2.257,34.133-3.123,51.238-.122,2.407.248,4.839.469,8.591-12.21-14.686-19.109-30.116-19.524-48.151-.83-36.12,10.899-68.848,27.762-100.002,17.335-32.027,40.521-59.295,69.926-80.82,23.841-17.451,50.226-29.624,79.742-34.164.588-.09,1.135-.446,3.491-1.411-6.124-1.489-10.644-2.769-15.238-3.678-50.506-9.997-99.608-5.383-146.369,16.329-39.588,18.381-66.126,48.147-72.647,92.64-3.922,26.757.251,52.981,9.198,78.324,22.352,63.312,61.891,113.359,117.468,150.859.675.455,1.296.989,2.775,2.127-13.171,2.106-24.919,2.345-36.4-3.816-21.098-11.322-37.566-27.797-52.332-46.131-29.654-36.819-51.445-77.619-60.516-124.41-5.53-28.525-6.001-57.138,1.485-85.527.158-.599.02-1.277.02-1.918-.553-.372-1.105-.743-1.658-1.115-9.785,13.672-20.512,26.775-29.157,41.133-18.045,29.97-29.614,62.155-31.006,97.703-1.829,46.706,16.656,82.801,55.548,108.061,49.369,32.065,103.575,42.539,161.763,34.791,32.76-4.362,63.251-14.675,91.583-31.572.891-.531,1.851-.945,3.993-2.027-7.206,17.33-17.997,29.649-33.439,37.963-32.339,17.411-67.45,22.849-103.451,22.278-47.67-.756-92.672-12.418-133.363-38.023-10.687-6.725-20.438-14.939-31.489-23.113,2.835,6.304,5.367,12.054,7.996,17.76,19.595,42.514,46.855,78.866,85.573,105.905,24.185,16.89,50.332,26.84,80.457,21.433,25.051-4.495,46.663-16.318,65.816-32.553,50.059-42.435,80.532-96.479,92.527-160.719,2.787-14.927,2.056-30.512,2.958-46.032,13.17,15.154,18.405,32.841,16.157,52.81-9.011,80.067-49.54,140.768-114.858,186.026-15.042,10.423-31.693,17.649-49.836,21.263.024.543.048,1.085.072,1.628,8.398,1.375,16.752,3.154,25.201,4.054,37.57,4.003,74.25.607,109.87-12.88,49.774-18.845,78.478-59.113,78.267-112.373-.187-47.389-14.99-90.729-39.574-130.788-17.989-29.313-39.336-55.793-68.925-74.451-6.166-3.888-12.742-7.125-19.128-10.665,10.566-5.249,31.845-6.537,44.854,2.507,24.988,17.372,44.851,39.439,61.323,64.627,30.482,46.61,48.165,97.482,46.906,153.652-.4,17.833-4.353,35.586-6.562,52.472,2.114-2.146,5.514-5.387,8.679-8.843,35.994-39.299,56.855-85.109,57.651-138.816.863-58.314-26.839-100.372-77.784-126.443-49.341-25.251-101.632-27.931-155.018-14.375-28.569,7.255-54.703,20.165-80.278,34.392-.914.509-1.805,1.06-4.23,2.49,7.139-14.344,15.219-25.648,27.331-33.857,22.433-15.204,47.623-23.314,73.963-27.637,46.304-7.6,91.773-4.106,135.111,14.806,34.497,15.055,63.246,37.346,81.745,71.107.389.71.963,1.319,2.755,1.57-2.854-23.524-5.708-47.047-8.562-70.571.305-.126.611-.252.916-.378.899,1.371,1.969,2.66,2.671,4.125,41.958,87.544,40.895,174.448-9.84,257.445-41.829,68.428-104.569,110.398-183.922,124.188-94.417,16.408-177.468-9.573-245.218-76.859C-28.67,351.159-23.789,186.965,75.493,84.816,139.972,18.475,219.728-8.894,312.104,2.518c41.274,5.099,78.872,20.078,113.324,43.017,9.33,6.212,17.759,13.777,26.602,20.721-.242.287-.483.573-.725.86Z" fill="#fcca41"/><path d="m552.154,145.181c-5.946-16.459-11.015-31.42-16.898-46.055-1.306-3.25-5.05-6.605-8.41-7.757-14.468-4.962-29.211-9.121-43.935-15.121,14.344-4.485,28.606-9.265,43.071-13.318,6.267-1.756,9.661-4.871,11.484-11.212,4.01-13.951,8.796-27.679,13.869-43.367,1.796,5.055,3.058,8.595,4.312,12.137,3.44,9.716,7.545,19.261,10.109,29.203,2.176,8.439,6.671,12.641,15,14.774,13.436,3.441,26.593,7.965,41.718,12.599-16.081,4.736-30.411,9.242-44.917,13.085-5.72,1.515-8.688,4.045-10.424,9.998-4.28,14.679-9.587,29.059-14.979,45.033Z" fill="#fcca41"/><path d="m471.471,156.838c-2.592-7.175-4.802-13.698-7.367-20.079-.57-1.417-2.202-2.88-3.667-3.382-6.308-2.163-12.735-3.976-19.155-6.592,6.254-1.955,12.471-4.039,18.778-5.806,2.732-.766,4.212-2.124,5.007-4.888,1.748-6.082,3.835-12.067,6.047-18.907.783,2.204,1.333,3.747,1.88,5.292,1.5,4.236,3.289,8.397,4.407,12.732.949,3.679,2.908,5.511,6.54,6.441,5.858,1.5,11.594,3.473,18.188,5.493-7.011,2.065-13.258,4.029-19.582,5.705-2.494.661-3.788,1.764-4.545,4.359-1.866,6.4-4.18,12.669-6.53,19.633Z" fill="#fcca41"/></g></g></svg>