<?xml version="1.0" encoding="UTF-8"?><svg id="b" xmlns="http://www.w3.org/2000/svg" width="883.136" height="191.842" viewBox="0 0 883.136 191.842"><g id="c"><g><g><path d="m738.059,103.644c12.713,14.523,21.086,32.069,38.686,40.642-4.461,3.045-18.248,2.136-24.089-2.223-3.057-2.282-5.862-5.049-8.286-8.003-5.71-6.96-11.02-14.247-16.697-21.235-3.218-3.961-6.842-7.593-10.931-12.085,3.06,0,5.493-.018,7.925.003,16.558.143,23.562-6.866,23.45-23.475-.109-16.144-9.577-25.446-25.308-24.866-7.54.278-9.271,1.97-9.285,9.469-.04,21.08-.017,42.16-.02,63.24q-.002,13.102,11.003,19.828h-35.4c.131-.731.112-1.254.25-1.299,7.45-2.456,9.081-3.89,9.185-11.869.31-23.65.274-47.306.189-70.959-.023-6.446-3.358-10.534-11.873-10.577,2.13-1.397,2.596-1.97,3.052-1.962,15.434.252,30.885.235,46.292,1.05,4.79.254,9.793,2.146,14.118,4.4,10.567,5.508,14.394,15.269,12.141,28.815-1.796,10.804-9.828,18.367-21.987,20.7-.586.112-1.177.199-2.415.406Z" fill="#fccb42"/><path d="m596.82,48.358c3.3,0,6.601-.06,9.899.011,13.33.285,26.724-.097,39.973,1.105,15.539,1.41,24.636,14.413,21.247,28.37-1.732,7.136-6.722,11.054-12.933,13.914-1.409.649-2.879,1.163-4.821,1.94,4.063,1.394,7.715,2.291,11.049,3.86,8.382,3.945,13.161,10.549,13.587,19.984.43,9.511-3.186,17.466-11.581,21.666-6.29,3.147-13.583,5.369-20.569,5.817-14.253.915-28.601.371-42.91.376-1.017,0-2.034-.418-3.105-.654.233-.671.32-1.212.439-1.219,7.284-.424,9.273-5.338,9.491-11.469.279-7.869.372-15.746.402-23.621.054-13.827.011-27.655-.015-41.482-.015-7.848.398-15.971-11.038-17.18.294-.473.589-.945.883-1.418Zm24.523,47.99c0,9.268.303,17.637-.062,25.976-.814,18.644,3.671,19.701,21.318,18.34,8.43-.65,14.465-5.034,16.225-13.391,1.932-9.174,1.999-18.445-6.041-25.344-9.196-7.892-20.287-5.072-31.441-5.581Zm.071-3.706c5.838,0,10.997.405,16.066-.102,6.428-.642,12.188-2.94,15.132-9.467,3.347-7.419,1.837-19.29-3.162-24.555-5.195-5.472-17.953-8.262-25.187-5.274-1.19.491-2.708,2.105-2.726,3.222-.198,11.844-.123,23.692-.123,36.176Z" fill="#fccb42"/><path d="m566.724,107.404c-.582-1.604-.723-3.687-1.837-4.712-2.233-2.053-4.858-4.679-7.571-5.007-6.139-.742-12.429-.234-19.344-.234,0,4.211-.032,7.857.006,11.502.089,8.519.118,17.04.358,25.555.124,4.401,2.434,6.723,7.089,6.588,5.625-.164,11.275.172,16.883-.193,7.06-.46,13.058-3.143,16.667-9.737,1.032-1.886,2.178-3.709,4.393-5.23-.891,5.759-1.688,11.536-2.777,17.257-.158.828-1.713,1.985-2.625,1.988-21.065.066-42.13-.004-63.196-.081-.405-.001-.808-.392-1.204-.598.112-.383.124-.876.292-.937,8.28-2.989,9.52-4.556,9.743-14.712.24-10.932.098-21.873.094-32.81-.004-10.455.129-20.914-.133-31.362-.176-7.008-1.431-13.673-10.084-15.819h63.189v16.344c-.242.065-.484.13-.725.195-.305-.601-.741-1.171-.894-1.809-1.707-7.125-6.711-10.53-13.521-11.043-6.718-.506-13.497-.307-20.245-.167-1.02.021-2.878,1.39-2.889,2.156-.18,12.989-.129,25.981-.129,39.389,7.076,0,13.844.497,20.468-.264,2.387-.274,4.602-3.412,6.547-5.558.93-1.027,1.046-2.791,2.489-4.095v23.228c-.348.056-.696.112-1.044.169Z" fill="#fccb42"/><path d="m369.607,52.193v41.479c6.908,0,13.622.314,20.292-.099,5.332-.33,7.27-4.645,9.19-9.164v22.539l-.921.22c-.384-1.049-.737-2.11-1.156-3.144-1.736-4.281-4.727-6.765-9.54-6.732-5.786.039-11.572.009-18.075.009,0,2.872-.013,5.536.002,8.201.055,9.326-.101,18.66.26,27.974.24,6.195,1.994,7.52,8.056,7.555,4.342.026,8.689-.131,13.026.02,10.78.375,18.095-4.411,21.715-14.898.491.213.983.425,1.474.638-.848,5.759-1.62,11.532-2.657,17.257-.104.576-1.805,1.227-2.767,1.231-20.744.085-41.488.087-62.232.071-.571,0-1.142-.379-1.886-.643.324-.609.446-1.235.738-1.329,7.542-2.406,9.527-4.302,9.608-12.19.236-22.995.22-45.995-.026-68.99-.07-6.489-2.898-11.695-10.132-13.491h63.154v16.297c-3.375-11.985-12.614-13.183-22.824-12.84-4.954.166-9.918.029-15.299.029Z" fill="#fccb42"/><path d="m883.136,145.018h-35.247c-.071-.31-.141-.619-.212-.929,1.515-.497,3.268-.667,4.5-1.556,3.167-2.286,3.682-5.748,2.405-9.101-2.564-6.737-5.436-13.364-8.448-19.914-.418-.91-2.346-1.572-3.584-1.587-10.938-.138-21.88-.161-32.818-.035-1.111.013-2.805.971-3.214,1.926-2.342,5.457-4.674,10.954-6.446,16.613-2.57,8.21-1.086,10.832,6.829,14.334h-23.762c13.71-8.411,14.839-23.38,20.361-35.703,8.792-19.62,16.55-39.703,24.829-59.555.404-.968,1.691-2.307,2.414-2.219.926.113,2.023,1.351,2.484,2.36,6.682,14.606,13.332,29.227,19.86,43.902,5.545,12.467,10.846,25.042,16.404,37.503,3.403,7.631,5.342,9.517,13.644,13.961Zm-57.085-77.913c-5.843,14.05-11.21,26.955-16.752,40.279h34.372c-5.891-13.467-11.52-26.333-17.62-40.279Z" fill="#fccb42"/><path d="m326.993,121.407c0,3.685.239,7.393-.115,11.044-.146,1.506-1.232,3.323-2.456,4.261-16.995,13.022-44.071,14.928-64.784,1.54-17.848-11.537-26.704-33.698-21.638-55.165,4.343-18.403,22.861-34.22,42.825-36.826,14.294-1.866,27.813.776,40.962,6.259,2.713,1.131,3.891,2.604,3.676,5.74-.342,4.984-.091,10.009-1.25,15.131-.292-.493-.78-.961-.848-1.483-2.335-18.026-31.307-27.696-48.757-19.088-17.932,8.846-22.603,24.218-22.166,41.963.46,18.666,8.157,33.834,25.071,43.343,15.021,8.445,39.176,6.849,47.486-15.142.256-.678.742-1.27,1.121-1.901.29.108.581.216.871.324Z" fill="#fccb42"/><path d="m431.409,48.674h34.164c.058.258.116.515.174.773-.739.29-1.457.657-2.219.856-4.557,1.193-7.344,3.959-7.459,8.801-.278,11.72-.596,23.442-.603,35.163-.008,12.851.011,25.716.615,38.547.314,6.682,2.645,8.179,9.298,8.183,3.699.002,7.405-.164,11.095.012,9.773.464,16.671-3.683,20.808-12.527.431-.92,1.092-1.733,2.376-2.327-.763,5.669-1.432,11.353-2.39,16.989-.143.843-1.64,2.084-2.512,2.085-21.06.026-42.121-.09-63.181-.214-.178-.001-.353-.459-.809-1.091,10.67-1.958,10.228-10.116,10.219-18.054-.023-20.585-.02-41.17-.061-61.755-.019-9.561-1.385-11.579-9.515-15.44Z" fill="#fccb42"/></g><g><path d="m159.564,23.73c-5.041-1.944-10.022-4.062-15.132-5.799-19.268-6.551-36.143-1.794-51.075,11.273-15.766,13.796-25.263,31.286-29.25,51.687-1.15,5.886-.798,12.068-1.104,18.116-.043.851.088,1.711.166,3.037-4.317-5.192-6.756-10.648-6.903-17.024-.293-12.771,3.854-24.342,9.816-35.357,6.129-11.324,14.327-20.965,24.723-28.575,8.429-6.17,17.758-10.474,28.194-12.079.208-.032.401-.158,1.234-.499-2.165-.527-3.763-.979-5.388-1.301-17.857-3.534-35.218-1.903-51.751,5.773-13.997,6.499-23.38,17.023-25.685,32.754-1.387,9.46.089,18.732,3.252,27.693,7.903,22.385,21.882,40.079,41.532,53.338.239.161.458.35.981.752-4.657.745-8.81.829-12.87-1.349-7.459-4.003-13.282-9.828-18.503-16.31-10.484-13.018-18.189-27.443-21.396-43.987-1.955-10.085-2.122-20.202.525-30.239.056-.212.007-.451.007-.678-.195-.131-.391-.263-.586-.394-3.459,4.834-7.252,9.467-10.309,14.543-6.38,10.596-10.47,21.976-10.963,34.544-.647,16.513,5.889,29.275,19.64,38.206,17.455,11.337,36.62,15.04,57.194,12.301,11.583-1.542,22.363-5.189,32.38-11.163.315-.188.654-.334,1.412-.717-2.548,6.127-6.363,10.483-11.823,13.422-11.434,6.156-23.848,8.079-36.577,7.877-16.854-.267-32.765-4.391-47.152-13.444-3.779-2.378-7.226-5.282-11.133-8.172,1.002,2.229,1.897,4.262,2.827,6.279,6.928,15.031,16.566,27.884,30.255,37.444,8.551,5.972,17.795,9.489,28.447,7.578,8.857-1.589,16.498-5.769,23.27-11.51,17.699-15.003,28.473-34.111,32.714-56.824.985-5.278.727-10.788,1.046-16.275,4.657,5.358,6.507,11.611,5.713,18.672-3.186,28.309-17.516,49.77-40.609,65.772-5.318,3.685-11.205,6.24-17.62,7.518.008.192.017.384.025.575,2.969.486,5.923,1.115,8.91,1.433,13.283,1.415,26.252.215,38.846-4.554,17.598-6.663,27.747-20.9,27.672-39.731-.066-16.755-5.3-32.078-13.992-46.242-6.36-10.364-13.908-19.726-24.369-26.323-2.18-1.375-4.505-2.519-6.763-3.771,3.736-1.856,11.259-2.311,15.859.887,8.835,6.142,15.858,13.944,21.682,22.85,10.777,16.48,17.029,34.466,16.584,54.326-.141,6.305-1.539,12.582-2.32,18.552.748-.759,1.95-1.905,3.069-3.127,12.726-13.895,20.102-30.092,20.383-49.08.305-20.618-9.489-35.488-27.502-44.706-17.445-8.928-35.933-9.875-54.809-5.082-10.101,2.565-19.341,7.129-28.383,12.16-.323.18-.638.375-1.496.88,2.524-5.072,5.381-9.068,9.663-11.971,7.931-5.376,16.838-8.243,26.151-9.772,16.371-2.687,32.448-1.452,47.77,5.235,12.197,5.323,22.362,13.204,28.902,25.141.138.251.341.467.974.555-1.009-8.317-2.018-16.634-3.027-24.951.108-.045.216-.089.324-.134.318.485.696.94.944,1.458,14.835,30.952,14.459,61.678-3.479,91.023-14.789,24.194-36.972,39.033-65.028,43.908-33.382,5.801-62.746-3.385-86.7-27.174C-10.137,124.157-8.411,66.104,26.692,29.988,49.489,6.532,77.688-3.145,110.348.89c14.593,1.803,27.886,7.099,40.067,15.209,3.299,2.196,6.279,4.871,9.405,7.326-.085.101-.171.203-.256.304Z" fill="#fccb42"/><path d="m192.417,50.084c-2.102-5.819-3.895-11.109-5.975-16.283-.462-1.149-1.785-2.335-2.974-2.743-5.115-1.754-10.328-3.225-15.534-5.346,5.072-1.586,10.114-3.276,15.228-4.709,2.216-.621,3.416-1.722,4.06-3.964,1.418-4.933,3.11-9.786,4.904-15.333.635,1.787,1.081,3.039,1.525,4.291,1.216,3.435,2.668,6.81,3.574,10.325.769,2.984,2.359,4.469,5.304,5.223,4.75,1.216,9.402,2.816,14.75,4.455-5.686,1.674-10.752,3.268-15.881,4.626-2.022.536-3.072,1.43-3.686,3.535-1.513,5.19-3.39,10.274-5.296,15.922Z" fill="#fccb42"/><path d="m166.695,55.452c-.917-2.537-1.698-4.843-2.605-7.099-.201-.501-.778-1.018-1.296-1.196-2.23-.765-4.503-1.406-6.772-2.331,2.211-.691,4.409-1.428,6.639-2.053.966-.271,1.489-.751,1.77-1.728.618-2.15,1.356-4.267,2.138-6.685.277.779.471,1.325.665,1.871.53,1.498,1.163,2.969,1.558,4.501.335,1.301,1.028,1.948,2.312,2.277,2.071.53,4.099,1.228,6.431,1.942-2.479.73-4.688,1.425-6.924,2.017-.882.234-1.339.624-1.607,1.541-.66,2.263-1.478,4.479-2.309,6.942Z" fill="#fccb42"/></g></g></g></svg>